Coordinates
version=1
nRows=14
nColumns=36
inDegrees=yes

Units are S.I. units (second, meters, Newtons, ...)
If the header above contains a line with 'inDegrees', this indicates whether rotational values are in degrees (yes) or radians (no).

endheader
time	pelvis_tilt	pelvis_list	pelvis_rotation	pelvis_tx	pelvis_ty	pelvis_tz	hip_flexion_r	hip_adduction_r	hip_rotation_r	knee_angle_r	knee_angle_r_beta	ankle_angle_r	subtalar_angle_r	mtp_angle_r	hip_flexion_l	hip_adduction_l	hip_rotation_l	knee_angle_l	knee_angle_l_beta	ankle_angle_l	subtalar_angle_l	mtp_angle_l	lumbar_extension	lumbar_bending	lumbar_rotation	arm_flex_r	arm_add_r	arm_rot_r	elbow_flex_r	pro_sup_r	arm_flex_l	arm_add_l	arm_rot_l	elbow_flex_l	pro_sup_l
     -1.30000000	     -7.51571405	     -1.82208840	      7.68315616	     -1.46077977	      1.12841343	     -0.21865454	     25.37713496	      3.81709021	     -7.34224040	     19.31606250	      0.33712889	     -0.70876383	    -13.74019674	     -6.96474937	     12.74415554	     -1.01740782	     -6.85015530	     56.24623609	      0.98168201	     -6.20748025	     -8.96244419	     -6.96474937	     -9.39331073	      4.12408248	     -5.93498764	      4.96710691	      2.20355119	     -8.42017934	     36.06798801	    100.81726725	     12.34562801	      2.79532780	     -0.59842242	     31.50460356	     89.55691378
     -1.29000000	     -7.72054184	     -2.47359261	      7.17161155	     -1.45287382	      1.12762603	     -0.21785841	     25.89254516	      4.68914723	     -7.25853823	     20.75193111	      0.36218952	     -0.19127455	    -14.48139332	     -7.01022612	     15.04896557	     -1.81969535	     -4.93089665	     60.29714265	      1.05238367	     -5.82701218	    -10.86467569	     -7.01022612	     -8.84343789	      4.69931395	     -4.92885783	      5.31451943	      1.99076194	     -9.18645352	     35.67846503	    100.65510944	     12.01908072	      4.09238812	     -4.74461344	     31.24298082	     88.81629239
     -1.28000000	     -7.99207657	     -3.12032854	      6.71034854	     -1.44486174	      1.12648533	     -0.21708872	     26.36177856	      5.53896616	     -7.25520800	     21.96512181	      0.38336370	      0.48099174	    -15.00959556	     -7.03158803	     17.22242327	     -2.52712913	     -3.15619751	     63.88120081	      1.11493728	     -5.32396823	    -12.33156530	     -7.03158803	     -8.22995724	      5.28927818	     -4.03065021	      5.61634025	      1.60572787	     -9.17755379	     35.35590589	    100.42985231	     11.55665227	      4.81740471	     -6.69695112	     31.33096712	     88.36332976
     -1.27000000	     -8.05147097	     -3.76262677	      6.29924856	     -1.43675736	      1.12555943	     -0.21631571	     26.40249792	      6.41498531	     -7.28052340	     22.74241490	      0.39693002	      1.10005430	    -15.35723964	     -7.07177758	     18.90526245	     -3.15298305	     -1.56740977	     66.77373973	      1.16542161	     -4.44773361	    -13.37152675	     -7.07177758	     -7.80363608	      5.91204564	     -3.51968514	      6.12068423	      1.25548170	     -8.88941090	     34.76597756	    100.46460053	     10.78322574	      5.65121406	    -10.30510832	     32.01850048	     87.87194723
     -1.26000000	     -8.03422157	     -4.34755648	      6.00375726	     -1.42835824	      1.12485828	     -0.21542154	     26.10685330	      7.24345092	     -7.29967206	     23.02104400	      0.40179302	      1.74616545	    -15.53603936	     -7.07903720	     20.26731099	     -3.61402197	     -0.14190776	     68.90283270	      1.20258129	     -3.22492208	    -14.17120913	     -7.07903720	     -7.45962770	      6.50573470	     -2.72836438	      6.27438081	      0.78124822	     -8.82088123	     34.54566785	    100.53023940	     10.22366817	      5.76585726	    -10.51312017	     32.29489706	     87.91567349
     -1.25000000	     -8.07415358	     -4.82399509	      5.72163879	     -1.41950610	      1.12427758	     -0.21433552	     25.67698811	      7.98832890	     -7.18026789	     22.95124587	      0.40057481	      2.45103550	    -15.58775872	     -7.11167839	     21.49726115	     -3.89076027	      1.05026288	     70.34451228	      1.22774335	     -1.66820818	    -14.61110045	     -7.11167839	     -7.00754674	      7.01171987	     -2.14922391	      6.37806766	      0.31723337	     -8.35738856	     34.35030003	     99.20370020	      9.48544381	      5.60178818	    -10.33313564	     32.64522026	     86.53528794
     -1.24000000	     -7.90895848	     -5.24802803	      5.57822910	     -1.41007560	      1.12451190	     -0.21328995	     24.76392337	      8.69303467	     -7.02623956	     22.42406927	      0.39137384	      2.88442932	    -15.64930408	     -7.12765115	     22.42801440	     -4.05755495	      2.20087085	     71.22352526	      1.24308502	     -0.36754173	    -15.02737895	     -7.12765115	     -6.83854276	      7.50001747	     -1.66170012	      6.32941031	     -0.10088072	     -8.23952421	     34.51774416	     98.41884369	      8.78517312	      5.26164181	     -9.75888503	     33.10630309	     85.82558542
     -1.23000000	     -7.92114064	     -5.57541853	      5.36631689	     -1.39980438	      1.12493758	     -0.21205291	     23.91318954	      9.29406678	     -6.82849310	     21.79245624	      0.38035011	      3.45734311	    -15.32982090	     -7.21226274	     23.52167464	     -4.16029142	      3.14340830	     71.73756222	      1.25205666	      0.57506428	    -15.22584861	     -7.21226274	     -6.46092694	      7.87222743	     -0.88131778	      5.85106724	     -0.33092203	    -10.08084235	     35.23581737	    104.66085055	      8.07070114	      4.86579156	     -9.49218551	     33.58332666	     91.51119824
     -1.22000000	     -7.65815301	     -5.83068336	      5.19848638	     -1.38881178	      1.12651934	     -0.21090124	     22.55773596	      9.87144205	     -6.49349336	     20.88447167	      0.36450279	      3.53860552	    -15.32867167	     -7.22976134	     24.34368487	     -4.24578257	      4.04149646	     71.96431326	      1.25601421	      0.93253020	    -15.36089870	     -7.22976134	     -6.42157919	      8.23230600	     -0.48270513	      5.58660079	     -0.67561887	    -10.07976927	     35.69029696	    102.74211639	      7.34572828	      4.39845486	     -8.94035182	     34.02650628	     89.87680690
     -1.21000000	     -7.54488119	     -5.88280313	      4.85923025	     -1.37720462	      1.12847147	     -0.20953377	     21.30184696	     10.26790795	     -5.92190554	     20.05529109	      0.35003086	      3.69743243	    -15.19682128	     -7.22807829	     25.34752666	     -4.23117324	      4.67039079	     71.99915954	      1.25662239	      0.73575746	    -15.42755752	     -7.22807829	     -6.11161515	      8.31385531	     -0.14964929	      5.44307382	     -0.93220777	    -10.14861231	     35.54038389	    103.10795968	      6.71430565	      3.96330277	     -8.93943442	     33.80003255	     90.14546244
     -1.20000000	     -7.43761462	     -5.97657930	      4.45581619	     -1.36527580	      1.13082242	     -0.20823199	     19.92823074	     10.68753723	     -5.42783158	     19.06556297	      0.33275685	      3.55203948	    -14.86215932	     -7.22712306	     26.45922494	     -4.37444133	      5.19466337	     71.93070237	      1.25542759	      0.04395885	    -15.20566760	     -7.22712306	     -5.80344082	      8.48993963	      0.18467963	      5.20289602	     -1.18738120	    -10.25850229	     35.56152994	    103.45516467	      5.95639072	      3.57045643	     -8.89254927	     33.72147160	     90.43972353
     -1.19000000	     -7.20532186	     -6.06453907	      4.09924748	     -1.35360967	      1.13353548	     -0.20708167	     18.36866303	     11.05696047	     -5.09154134	     17.98078944	      0.31382398	      3.09967886	    -14.53758612	     -7.26363797	     27.51914329	     -4.57660590	      5.65006423	     71.69642014	      1.25133859	     -0.95284452	    -15.06962431	     -7.26363797	     -5.97449326	      8.71652599	      1.49107068	      3.71922430	     -1.04405376	    -13.75632003	     38.41273188	    107.21707615	      5.49389454	      3.30046726	     -8.41067779	     34.11873049	     95.54086202
     -1.18000000	     -7.00347893	     -6.02672403	      3.74422998	     -1.34238118	      1.13638743	     -0.20602218	     16.82328602	     11.25609916	     -4.67425448	     16.87087836	      0.29445238	      2.65587409	    -14.18668230	     -7.27172746	     28.55035233	     -4.64668032	      5.99739541	     71.09727156	      1.24088148	     -2.29350826	    -15.23447096	     -7.27172746	     -5.91850466	      8.75915398	      1.67768507	      3.33447913	     -1.21503921	    -13.85465439	     38.97585963	    107.61890011	      4.65250662	      3.02209271	     -8.92278411	     34.36654003	     96.09572658
     -1.17000000	     -6.90096451	     -5.98561905	      3.41125497	     -1.33184520	      1.13898569	     -0.20484201	     15.41999025	     11.41032022	     -4.26888399	     15.72691925	      0.27448652	      2.11732729	    -13.85670671	     -7.27057556	     29.59994623	     -4.76268808	      6.18802721	     70.11197858	      1.22368487	     -3.37389006	    -15.18724620	     -7.27057556	     -5.63941091	      8.80488158	      1.85610402	      3.05261032	     -1.32884478	    -13.93691653	     39.01124079	    107.98774939	      3.97219008	      2.66638582	     -9.12603657	     34.06474460	     96.37858851
